<svg id="eIMcb08ktYP1" xmlns="http://www.w3.org/2000/svg" xmlns:xlink="http://www.w3.org/1999/xlink" viewBox="0 0 70 70" shape-rendering="geometricPrecision" text-rendering="geometricPrecision" project-id="c1878846bde543b1ae673f31b0eecfb6" export-id="8d4932ff249d4160aeefa77ae99d418a" cached="false" width="70" height="70"><g transform="matrix(.290762 0 0 0.290762-10.32211-3.334493)"><ellipse rx="38.54532" ry="38.276828" transform="matrix(1.190052 0 0 1.010052 85.569579 115.173618)" fill="#3f7acc" stroke-width="0"/><ellipse rx="38.54532" ry="38.276828" transform="matrix(.822254 0 0 0.697885 86.122242 115.173618)" fill="#d2dbed" stroke-width="0"/></g><g transform="matrix(.290545 0 0 0.290545 30.589867-3.317888)"><ellipse rx="38.54532" ry="38.276828" transform="matrix(1.190052 0 0 1.010052 85.569579 115.173618)" fill="#3f7acc" stroke-width="0"/><ellipse rx="38.54532" ry="38.276828" transform="matrix(.822254 0 0 0.697885 86.122242 115.173618)" fill="#d2dbed" stroke-width="0"/></g><path d="M150.00656,206.17861c-23.08867,0-42.32039-16.51358-46.52852-38.37413-19.16659-11.95014-31.58222-31.07574-31.58222-52.63086c0-36.20948,35.0358-65.56306,78.25464-65.56306s78.25464,29.35358,78.25464,65.56306c0,21.6776-12.55711,40.89799-31.90958,52.83387-4.28777,21.75969-23.47183,38.17112-46.48898,38.17112h.00002Z" transform="matrix(.330055 0 0 0.367144-14.583666-11.95573)" fill="#3f7acc" stroke-width="0"/><path d="M113.4636,159.05855c0-3.38822.45601-6.66932,1.30967-9.78463-16.69882-3.38742-29.27298-18.22589-29.27298-36.01791c0-20.29315,16.3579-36.74399,36.5364-36.74399c11.2383,0,21.2915,5.10284,27.99369,13.1303c6.7022-8.02746,16.7554-13.1303,27.99369-13.1303c20.1785,0,36.5364,16.45085,36.5364,36.74399c0,17.81246-12.60308,32.66459-29.33056,36.02954.85161,3.11185,1.30648,6.389,1.30648,9.773c0,20.29315-16.327513,41.400179-36.506013,41.400179s-36.566787-21.107039-36.566787-41.400179h.00001Z" transform="matrix(.332641 0 0 0.332641-15.129112-6.386861)" fill="#d2dbed" stroke-width="0"/><g transform="matrix(.336874 0 0 0.336874 6.491688-6.625961)"><path d="M101.99523,114.01496c0-8.40056,5.81342-15.21057,12.98463-15.21057s12.98463,6.81,12.98463,15.21057-5.81342,15.21057-12.98463,15.21057-12.98463-6.81-12.98463-15.21057Z" fill="#3f7acc" stroke-width="0"/><ellipse rx="4.130196" ry="4.658761" transform="translate(119.110053 109.3562)" fill="#d2dbed" stroke-width="0"/></g><g transform="matrix(.336321 0 0 0.336321-18.584419-10.207485)"><path d="M101.99523,113.729163c0-8.242719,5.81342-14.924773,12.98463-14.924773s12.98463,6.682044,12.98463,14.924773-5.81342,14.924773-12.98463,14.924773-12.98463-6.682045-12.98463-14.924773Z" transform="matrix(1 0 0-1.019111 12.637727 240.728604)" fill="#3f7acc" stroke-width="0"/><ellipse rx="4.130196" ry="4.658761" transform="translate(131.747782 120.167202)" fill="#d2dbed" stroke-width="0"/></g><path d="M132.969336,149.28555c8.412932-5.583169,25.439447-5.581454,34.052337-.011631-4.553559.285547-13.060904,4.533677-16.991293,9.784629-3.91344-5.260806-12.476823-9.564855-17.061044-9.772998Z" transform="matrix(.35675 0 0 0.35675-18.733752-12.858893)" fill="#3f7acc" stroke-width="0.6"/><path d="M132.969336,174.980437l3.483585.076107" transform="matrix(-2.870606 0 0-2.870606 421.479718 553.123565)" fill="none" stroke="#3f7acc" stroke-linecap="round"/></svg>
